<?xml version="1.0" encoding="UTF-8" standalone="no"?>
<!DOCTYPE svg PUBLIC "-//W3C//DTD SVG 1.1//EN" "http://www.w3.org/Graphics/SVG/1.1/DTD/svg11.dtd">
<svg width="100%" height="100%" viewBox="0 0 510 361" version="1.1" xmlns="http://www.w3.org/2000/svg" xmlns:xlink="http://www.w3.org/1999/xlink" xml:space="preserve" xmlns:serif="http://www.serif.com/" style="fill-rule:evenodd;clip-rule:evenodd;stroke-linejoin:round;stroke-miterlimit:2;">
    <g id="Livello-1" serif:id="Livello 1" transform="matrix(1,0,0,1,15.4421,11.3203)">
        <g transform="matrix(1,0,0,1,243.2,217.305)">
            <path d="M0,-31.31C-0.912,-35.297 -1.753,-38.974 -2.594,-42.65C-2.716,-42.637 -2.837,-42.624 -2.958,-42.611C-3.968,-38.89 -4.978,-35.168 -6.023,-31.31L0,-31.31ZM-104.948,-29.102C-106.839,-34.395 -108.68,-39.545 -110.717,-45.246C-112.415,-39.552 -113.951,-34.399 -115.531,-29.102L-104.948,-29.102ZM41.827,-35.477C61.167,-54.288 61.168,-74.927 41.827,-92.749L41.827,-35.477ZM193.801,36.532C193.206,39.571 192.89,42.699 191.954,45.629C190.307,50.795 188.506,55.939 186.349,60.91C184.339,65.541 181.971,70.045 179.418,74.406C176.04,80.174 170.89,84.377 165.801,88.542C160.607,92.794 155.453,97.142 149.924,100.925C137.722,109.271 123.931,113.815 109.555,116.665C87.504,121.036 65.432,121.447 43.609,115.551C35.212,113.282 27.043,110.026 18.98,106.709C13.34,104.387 7.823,101.564 2.677,98.295C-2.452,95.036 -7.059,90.951 -11.876,87.205C-12.97,86.354 -14.045,85.463 -15.031,84.493C-34.891,64.961 -49.332,42.219 -56.116,14.961C-56.733,12.478 -57.259,9.972 -58.189,7.481L-58.189,10.017C-58.189,24.115 -58.187,38.212 -58.194,52.31C-58.194,53.164 -58.184,54.032 -58.327,54.869C-58.826,57.786 -60.982,59.767 -63.478,59.687C-65.979,59.607 -68.146,57.527 -68.362,54.614C-68.556,51.984 -68.403,49.328 -68.403,46.346C-69.394,46.95 -70.088,47.491 -70.87,47.827C-74.123,49.224 -77.428,47.563 -78.773,43.832C-82.987,32.138 -87.176,20.435 -91.368,8.734C-94.225,0.76 -97.114,-7.201 -99.884,-15.204C-100.438,-16.801 -101.214,-17.364 -102.901,-17.324C-107.65,-17.213 -112.404,-17.211 -117.152,-17.327C-118.714,-17.365 -119.274,-16.78 -119.688,-15.378C-125.106,2.965 -130.579,21.292 -136.037,39.624C-136.237,40.294 -136.401,40.976 -136.635,41.634C-137.626,44.428 -139.976,46.036 -142.683,45.795C-145.417,45.551 -147.492,43.628 -147.931,40.685C-149.021,33.372 -150.032,26.046 -151.07,18.725C-153.479,1.732 -155.885,-15.262 -158.625,-32.307C-160.123,-27.269 -161.629,-22.233 -163.116,-17.192C-165.314,-9.736 -167.485,-2.272 -169.696,5.18C-170.785,8.848 -172.819,10.5 -175.916,10.333C-178.987,10.168 -180.779,8.304 -181.479,4.47C-186.775,-24.546 -192.062,-53.565 -197.355,-82.582C-197.494,-83.341 -197.669,-84.093 -198.202,-84.907C-198.462,-84.11 -198.742,-83.32 -198.979,-82.516C-209.797,-45.749 -220.608,-8.98 -231.433,27.785C-232.723,32.168 -235.897,34.314 -239.281,32.748C-240.826,32.033 -241.908,30.316 -243.199,29.054L-243.199,25.782C-242.933,25.151 -242.602,24.539 -242.409,23.885C-239.146,12.85 -235.896,1.811 -232.649,-9.228C-222.581,-43.463 -212.52,-77.7 -202.444,-111.933C-201.431,-115.373 -199.261,-117.059 -196.275,-116.847C-193.393,-116.642 -191.393,-114.679 -190.793,-111.391C-186.454,-87.581 -182.125,-63.769 -177.788,-39.959C-176.67,-33.824 -175.533,-27.693 -174.282,-20.894C-173.858,-22.057 -173.651,-22.542 -173.504,-23.044C-169.799,-35.651 -166.099,-48.26 -162.403,-60.869C-161.269,-64.739 -159.115,-66.524 -155.873,-66.253C-152.914,-66.006 -151.084,-63.959 -150.546,-60.181C-147.888,-41.536 -145.248,-22.889 -142.6,-4.243C-141.835,1.137 -141.064,6.517 -140.296,11.897C-140.166,11.893 -140.035,11.889 -139.905,11.885C-137.033,2.244 -134.162,-7.398 -131.248,-17.186C-131.869,-17.233 -132.248,-17.253 -132.625,-17.289C-136.368,-17.647 -138.65,-20.081 -138.466,-23.518C-138.292,-26.774 -135.783,-28.959 -132.148,-29.011C-131.292,-29.023 -130.426,-29.09 -129.58,-28.997C-128.182,-28.84 -127.561,-29.36 -127.145,-30.762C-119.467,-56.622 -111.727,-82.465 -104.002,-108.311C-103.551,-109.823 -103.119,-111.34 -102.617,-113.065L-105.284,-113.065C-112.216,-113.065 -119.147,-113.081 -126.079,-113.057C-128.312,-113.049 -130.235,-113.724 -131.658,-115.468C-133.495,-117.719 -133.864,-120.245 -132.624,-122.89C-131.375,-125.552 -129.171,-126.821 -126.261,-126.827C-118.239,-126.845 -110.216,-126.909 -102.196,-126.785C-100.25,-126.755 -99.522,-127.382 -99.054,-129.212C-97.702,-134.484 -95.997,-139.666 -94.696,-144.95C-93.799,-148.596 -92.107,-151.378 -88.497,-152.757L-85.225,-152.757C-79.612,-150.084 -78.347,-147.224 -80.089,-141.123C-81.412,-136.491 -82.742,-131.86 -84.181,-126.837L-79.375,-126.837C-74.313,-126.837 -69.25,-126.855 -64.187,-126.832C-59.492,-126.812 -56.517,-124.068 -56.575,-119.87C-56.633,-115.783 -59.606,-113.08 -64.121,-113.07C-71.676,-113.052 -79.231,-113.07 -86.787,-113.062C-89.492,-113.059 -90.736,-112.105 -91.507,-109.528C-95.854,-95.002 -100.227,-80.483 -104.509,-65.938C-104.831,-64.848 -104.825,-63.463 -104.451,-62.396C-100.807,-51.983 -97.017,-41.621 -93.362,-31.21C-92.792,-29.586 -92.082,-28.904 -90.26,-28.963C-85.748,-29.112 -81.227,-29.032 -76.709,-29.001C-72.977,-28.976 -70.477,-26.623 -70.473,-23.206C-70.469,-19.814 -72.977,-17.362 -76.653,-17.301C-80.446,-17.24 -84.241,-17.288 -88.31,-17.288C-81.784,0.911 -75.365,18.81 -68.946,36.711C-68.83,36.708 -68.713,36.705 -68.596,36.702C-68.567,36.08 -68.515,35.457 -68.515,34.835C-68.509,1.886 -68.514,-31.061 -68.488,-64.009C-68.487,-65.314 -68.395,-66.684 -67.999,-67.912C-67.327,-69.998 -65.827,-71.311 -63.526,-71.395C-61.21,-71.48 -59.646,-70.232 -58.854,-68.197C-58.392,-67.002 -58.23,-65.628 -58.218,-64.331C-58.155,-58.107 -58.189,-51.882 -58.028,-45.635C-55.813,-55.994 -52.767,-66.057 -48.48,-75.737C-42.581,-89.063 -34.803,-101.179 -25.196,-112.126C-22.599,-115.085 -19.528,-115.588 -17.027,-113.516C-14.394,-111.335 -14.289,-107.879 -16.949,-104.849C-31.818,-87.905 -41.881,-68.501 -46.551,-46.43C-52.494,-18.339 -49.44,8.811 -37.491,34.94C-37.331,35.29 -37.142,35.626 -36.684,36.517C-34.028,26.839 -31.498,17.633 -28.978,8.424C-26.453,-0.801 -23.938,-10.029 -21.38,-19.402C-22.045,-19.473 -22.636,-19.517 -23.222,-19.602C-26.289,-20.045 -28.304,-22.509 -28.188,-25.664C-28.075,-28.756 -25.815,-31.034 -22.682,-31.213C-18.048,-31.481 -18.049,-31.481 -16.807,-36.044C-13.907,-46.701 -11.017,-57.36 -8.104,-68.013C-7.144,-71.525 -4.884,-73.406 -1.91,-73.25C0.978,-73.098 2.888,-71.27 3.653,-67.882C6.158,-56.802 8.617,-45.711 11.171,-34.643C12.063,-30.782 11.178,-31.259 15.498,-31.221C17.367,-31.204 19.237,-31.218 21.106,-31.218C26.429,-31.218 28.253,-29.503 28.555,-24.183C30.463,-24.3 30.11,-25.72 30.11,-26.895C30.117,-49.406 30.115,-71.916 30.115,-94.426C30.115,-96.529 30.008,-98.64 30.146,-100.733C30.242,-102.183 29.708,-103.013 28.498,-103.706C25.464,-105.443 22.482,-107.274 19.478,-109.065C16.575,-110.795 15.553,-114.024 17.002,-116.896C18.451,-119.77 21.774,-121.012 24.765,-119.447C38.884,-112.054 51.362,-102.649 60.199,-89.127C71.336,-72.088 70.603,-53.723 58.248,-36.644C57.241,-35.253 57.182,-34.155 57.632,-32.629C65.469,-6.085 73.259,20.472 81.054,47.028C82.553,52.134 79.263,56.302 74.494,55.331C71.771,54.775 70.581,52.776 69.863,50.317C66.596,39.124 63.304,27.936 60.023,16.747C56.13,3.466 52.24,-9.814 48.344,-23.093C48.213,-23.537 48.029,-23.963 47.821,-24.532C45.994,-22.924 44.132,-21.5 42.565,-19.802C41.945,-19.13 41.756,-17.851 41.754,-16.848C41.711,5.974 41.722,28.795 41.717,51.618C41.717,52.472 41.738,53.338 41.616,54.18C41.188,57.146 38.737,59.216 35.788,59.17C32.856,59.124 30.484,56.948 30.159,53.956C30.075,53.185 30.116,52.4 30.116,51.621C30.115,31.993 30.115,12.365 30.115,-7.264L30.115,-10.303C29.181,-9.723 28.512,-9.312 27.846,-8.895C24.634,-6.885 21.213,-7.373 19.376,-10.104C17.514,-12.872 18.21,-16.283 21.104,-18.541C21.344,-18.73 21.601,-18.896 22.238,-19.348L14.632,-19.348C15.574,-15.153 16.518,-10.938 17.47,-6.724C20.574,7.009 23.667,20.746 26.803,34.472C27.426,37.198 27.139,39.602 24.81,41.412C21.387,44.072 16.664,42.204 15.622,37.719C13.702,29.458 11.868,21.176 9.998,12.903C7.699,2.735 5.371,-7.427 3.131,-17.608C2.801,-19.109 2.186,-19.656 0.637,-19.602C-2.551,-19.492 -5.746,-19.569 -9.217,-19.569C-10.044,-16.621 -10.891,-13.665 -11.702,-10.701C-16.363,6.326 -21.054,23.345 -25.638,40.393C-26.464,43.467 -27.937,45.626 -31.825,46.235C-28.538,50.937 -25.549,55.44 -22.315,59.759C-20.081,62.744 -17.754,65.738 -15.035,68.263C-10.126,72.823 -4.952,77.106 0.224,81.368C3.896,84.392 7.598,87.43 11.575,90.019C14.796,92.115 18.36,93.756 21.924,95.233C28.824,98.093 35.812,100.749 42.8,103.392C55.739,108.287 69.24,109.239 82.893,108.769C93.73,108.395 104.462,107.05 114.959,104.225C119.236,103.074 123.707,102.227 127.642,100.318C133.051,97.694 138.344,94.6 143.123,90.966C149.436,86.167 155.708,81.121 161.093,75.338C171.184,64.504 178.816,52.125 180.847,37.028C182.526,24.54 179.671,12.872 173.876,1.887C165.677,-13.652 159.531,-29.843 157.588,-47.421C155.645,-64.994 157.859,-81.889 166.237,-97.688C167.396,-99.875 168.768,-101.985 170.287,-103.939C172.399,-106.656 175.894,-107.087 178.632,-105.222C181.371,-103.356 182.344,-99.574 180.477,-96.749C168.087,-78.008 167.372,-57.687 172.23,-36.61C174.638,-26.168 178.592,-16.29 183.604,-6.848C188.567,2.505 192.276,12.241 193.435,22.84C193.475,23.207 193.676,23.555 193.801,23.913L193.801,36.532Z" style="fill-rule:nonzero;"/>
        </g>
        <g transform="matrix(1,0,0,1,368.565,112.519)">
            <path d="M0,154.175C0.322,154.167 0.644,154.159 0.966,154.151C2.163,151.627 3.562,149.177 4.525,146.567C8.886,134.752 10.626,122.379 11.824,109.94C14.285,84.386 14.018,58.856 10.437,33.408C9.103,23.927 7.339,14.518 3.525,5.648C2.759,3.865 1.652,2.23 0.702,0.527C0.416,0.533 0.13,0.54 -0.156,0.546C-1.47,3.476 -3.019,6.325 -4.055,9.349C-8.643,22.733 -10.321,36.67 -11.433,50.674C-13.224,73.24 -12.849,95.779 -9.954,118.247C-8.71,127.904 -7.045,137.492 -3.592,146.652C-2.615,149.243 -1.209,151.672 0,154.175M25.469,77.512C25.203,98.325 24.208,119.089 19.194,139.392C17.673,145.554 15.185,151.507 12.777,157.408C11.891,159.58 10.173,161.539 8.469,163.229C3.606,168.05 -2.886,167.934 -7.785,163.066C-11.994,158.883 -14.132,153.523 -15.928,148.029C-20.088,135.303 -21.907,122.126 -23.116,108.862C-24.837,89.981 -25.021,71.065 -23.613,52.157C-22.394,35.79 -20.604,19.483 -14.886,3.947C-13.506,0.197 -11.548,-3.484 -9.179,-6.698C-3.889,-13.875 4.703,-13.771 10.184,-6.717C15.237,-0.21 17.424,7.54 19.276,15.367C24.11,35.799 25.22,56.614 25.469,77.512" style="fill-rule:nonzero;"/>
        </g>
        <g transform="matrix(1,0,0,1,333.57,187.514)">
            <path d="M0,1.803C0,18.124 0.008,34.445 -0.017,50.766C-0.019,51.97 -0.097,53.216 -0.413,54.368C-1.091,56.833 -3.309,58.471 -5.789,58.559C-8.351,58.649 -10.744,57.046 -11.532,54.525C-11.863,53.464 -11.979,52.297 -11.979,51.178C-12.002,18.13 -11.985,-14.918 -12.02,-47.966C-12.022,-50.678 -11.344,-52.97 -8.965,-54.437C-5.061,-56.846 -0.29,-54.014 -0.026,-49.107C0.104,-46.678 0,-44.237 0,-41.801L0,1.803Z" style="fill-rule:nonzero;"/>
        </g>
        <g transform="matrix(1,0,0,1,296.515,314.095)">
            <path d="M0,-22.05C-0.852,-22.73 -1.374,-23.389 -2.044,-23.617C-2.813,-23.879 -3.919,-22.736 -3.655,-21.917C-3.416,-21.175 -2.739,-20.573 -2.256,-19.909C-1.592,-20.54 -0.927,-21.17 0,-22.05M38.821,-7.668C37.41,-10.74 36.126,-13.54 34.835,-16.337C34.591,-16.866 34.44,-17.573 34.019,-17.851C33.548,-18.16 32.816,-18.072 32.199,-18.157C32.225,-17.714 32.13,-17.219 32.297,-16.837C33.266,-14.618 34.099,-12.306 35.35,-10.252C37.425,-6.846 37.968,-3.553 35.633,-0.098C35.587,-0.03 35.54,0.057 35.543,0.134C35.559,0.561 35.588,0.988 35.613,1.416C36.169,1.334 36.851,1.42 37.246,1.124C37.663,0.811 37.839,0.147 38.063,-0.387C39.193,-3.081 40.306,-5.784 41.425,-8.484C42.545,-11.184 43.698,-13.87 44.756,-16.594C44.949,-17.092 44.952,-18.115 44.696,-18.253C43.818,-18.727 43.122,-18.287 42.8,-17.315C42.668,-16.919 42.484,-16.542 42.325,-16.155C41.211,-13.456 40.097,-10.757 38.821,-7.668M-6.565,-12.301C-6.565,-13.804 -6.514,-15.31 -6.605,-16.807C-6.626,-17.133 -7.161,-17.675 -7.458,-17.674C-7.838,-17.672 -8.377,-17.3 -8.552,-16.944C-8.751,-16.534 -8.641,-15.966 -8.641,-15.467C-8.641,-13.296 -8.618,-11.125 -8.633,-8.954C-8.643,-7.349 -9.164,-6.004 -10.717,-5.261C-13.831,-3.77 -16.95,-5.914 -16.857,-8.77C-16.774,-11.352 -16.936,-13.946 -17.096,-16.528C-17.119,-16.898 -17.753,-17.51 -18.093,-17.502C-18.455,-17.493 -19.114,-16.879 -19.11,-16.535C-19.072,-13.536 -19.14,-10.508 -18.734,-7.549C-18.276,-4.205 -15.809,-2.576 -12.226,-2.749C-9,-2.904 -6.861,-4.961 -6.583,-8.297C-6.472,-9.623 -6.564,-10.966 -6.565,-12.301M54.296,-18.924C50.151,-18.868 46.714,-15.258 46.827,-11.081C46.95,-6.601 50.789,-3.304 55.851,-3.332C58.429,-3.347 61.961,-7.969 61.929,-11.288C61.888,-15.601 58.509,-18.981 54.296,-18.924M-59.927,-9.531C-56.265,-9.531 -52.688,-9.502 -49.114,-9.543C-47.304,-9.564 -47.108,-9.87 -47.48,-11.618C-48.051,-14.302 -50.601,-16.825 -53.223,-17.301C-56.56,-17.905 -59.411,-16.615 -61.114,-13.729C-63.242,-10.123 -62.096,-5.309 -58.589,-3.126C-55.289,-1.072 -50.49,-2.157 -48.418,-5.486C-48.189,-5.853 -48.344,-6.458 -48.321,-6.953C-48.896,-6.894 -49.479,-6.877 -50.037,-6.748C-50.224,-6.705 -50.331,-6.362 -50.494,-6.174C-52.08,-4.332 -54.129,-3.757 -56.379,-4.423C-58.608,-5.083 -59.687,-6.81 -59.927,-9.531M-79.008,-6.771C-79.433,-7.66 -79.653,-8.088 -79.845,-8.529C-80.849,-10.829 -81.896,-13.113 -82.822,-15.446C-83.237,-16.492 -83.905,-17.076 -84.898,-16.64C-86.088,-16.117 -84.993,-15.328 -84.773,-14.797C-83.37,-11.394 -81.877,-8.028 -80.376,-4.665C-80.015,-3.856 -79.513,-3.108 -79.075,-2.331C-78.577,-3.134 -77.986,-3.894 -77.597,-4.745C-76.532,-7.075 -75.553,-9.445 -74.428,-12.056C-72.799,-8.553 -71.34,-5.415 -69.62,-1.721C-67.453,-6.898 -65.52,-11.491 -63.646,-16.111C-63.587,-16.257 -64.127,-16.862 -64.435,-16.904C-65.47,-17.045 -65.821,-16.272 -66.156,-15.445C-67.266,-12.7 -68.427,-9.977 -69.72,-6.883C-71.188,-10.104 -72.462,-12.921 -73.765,-15.724C-73.924,-16.065 -74.242,-16.332 -74.486,-16.633C-74.733,-16.342 -75.069,-16.09 -75.214,-15.754C-76.433,-12.924 -77.616,-10.079 -79.008,-6.771M19.951,-17.293C19.776,-17.077 19.603,-16.862 19.428,-16.646C19.144,-16.819 18.859,-16.992 18.575,-17.165C15.463,-19.055 12.138,-18.717 9.621,-16.254C7.126,-13.813 6.541,-10.001 8.207,-7.03C9.923,-3.972 13.214,-2.443 16.497,-3.349C17.508,-3.627 18.384,-4.373 19.354,-4.839C19.548,-4.932 20.121,-4.726 20.123,-4.649C20.149,-3.546 20.912,-3.304 21.646,-3.63C22.042,-3.807 22.351,-4.652 22.344,-5.191C22.276,-10.881 22.136,-16.57 22.022,-22.259C22.009,-22.956 22.04,-23.642 21.048,-23.648C20.103,-23.653 20.009,-23.052 20.01,-22.308C20.011,-20.636 19.974,-18.964 19.951,-17.293M106.949,-5.232C107.157,-5.457 107.364,-5.682 107.571,-5.907C109.626,-4.814 111.559,-3.553 114.135,-4.646C117.073,-5.892 119.009,-7.851 119.445,-11.025C119.915,-14.446 118.458,-17.056 115.567,-18.82C112.958,-20.411 110.196,-20.042 107.462,-17.917C107.216,-17.727 106.945,-17.57 106.625,-17.357C106.459,-18.262 106.556,-19.257 105.243,-19.033C104.237,-18.862 104.494,-18.098 104.485,-17.476C104.469,-16.308 104.494,-15.14 104.493,-13.971C104.492,-9.386 104.487,-4.801 104.483,-0.215C104.426,-0.162 104.311,-0.083 104.32,-0.061C104.374,0.058 104.459,0.163 104.533,0.273C106.838,0.609 106.832,0.609 106.861,-1.488C106.879,-2.736 106.919,-3.984 106.949,-5.232M-33.12,-16.743C-33.652,-16.76 -34.186,-16.777 -34.719,-16.792C-34.76,-18.294 -34.81,-19.795 -34.841,-21.296C-34.856,-22.068 -34.78,-22.839 -35.95,-22.797C-36.959,-22.762 -36.916,-22.098 -36.909,-21.414C-36.853,-15.65 -36.813,-9.886 -36.725,-4.122C-36.705,-2.828 -35.471,-2.092 -34.585,-2.998C-33.665,-3.941 -33.119,-3.654 -32.276,-3.226C-28.854,-1.482 -25.242,-3.029 -23.374,-5.526C-21.209,-8.416 -21.311,-12.245 -23.634,-15.017C-26.048,-17.898 -28.87,-18.411 -33.12,-16.743M98.392,-9.753C98.334,-9.709 98.225,-9.657 98.229,-9.623C98.247,-9.503 98.305,-9.389 98.348,-9.273C97.513,-7.012 96.023,-6.009 93.928,-6.293C91.813,-6.58 90.512,-7.847 90.403,-10.124C90.275,-12.846 90.378,-15.579 90.38,-18.307C90.436,-18.363 90.55,-18.446 90.537,-18.473C90.481,-18.6 90.391,-18.711 90.313,-18.827C89.405,-18.979 88.07,-19.719 88.063,-18.037C88.051,-14.877 88.16,-11.696 88.538,-8.563C88.767,-6.663 90.078,-5.141 91.991,-4.632C93.783,-4.155 95.596,-3.523 97.519,-4.741C99.828,-6.206 100.74,-8.25 100.815,-10.809C100.888,-13.305 100.882,-15.803 100.911,-18.3C100.97,-18.356 101.089,-18.433 101.077,-18.462C101.029,-18.591 100.943,-18.707 100.871,-18.827C100.049,-19.411 99.23,-19.492 98.419,-18.808C98.359,-18.761 98.244,-18.703 98.251,-18.668C98.273,-18.546 98.338,-18.431 98.386,-18.314L98.392,-9.753ZM4.371,-22.318C4.345,-22.501 4.318,-22.686 4.291,-22.869C2.36,-23.45 2.324,-23.45 2.331,-21.598C2.35,-16.099 2.396,-10.599 2.442,-5.1C2.447,-4.606 2.472,-4.098 2.591,-3.622C2.662,-3.339 2.963,-2.876 3.111,-2.895C3.468,-2.939 4.008,-3.152 4.091,-3.416C4.307,-4.106 4.396,-4.86 4.397,-5.588C4.407,-11.164 4.385,-16.74 4.371,-22.318M-3.104,-4.236C-3.164,-4.181 -3.281,-4.106 -3.271,-4.075C-3.226,-3.947 -3.143,-3.832 -3.073,-3.713C-1.043,-3.017 -0.763,-3.13 -0.775,-4.965C-0.802,-8.814 -0.888,-12.663 -1.022,-16.511C-1.037,-16.93 -1.534,-17.331 -1.808,-17.741C-2.232,-17.335 -2.823,-17 -3.036,-16.503C-3.248,-16.009 -3.077,-15.352 -3.079,-14.766C-3.087,-11.256 -3.096,-7.745 -3.104,-4.236M73.925,-7.084L73.947,-7.107C73.744,-6.947 73.54,-6.787 73.337,-6.628C72.988,-6.488 72.639,-6.349 72.29,-6.209C71.815,-6.808 71.487,-6.657 71.258,-6.006C70.411,-6.219 69.565,-6.432 68.719,-6.644C68.517,-6.805 68.315,-6.965 68.113,-7.125L68.141,-7.1L67.563,-7.753C67.294,-8.946 66.876,-10.13 66.787,-11.337C66.647,-13.249 66.739,-15.179 66.711,-17.1C66.7,-17.815 66.917,-18.705 65.738,-18.737C64.561,-18.77 64.708,-17.927 64.715,-17.176C64.728,-15.589 64.675,-13.997 64.767,-12.414C64.857,-10.842 64.924,-9.236 65.309,-7.722C65.778,-5.875 68.863,-3.443 70.395,-3.414C73.927,-3.349 77.033,-6.125 77.228,-9.721C77.366,-12.304 77.249,-14.901 77.256,-17.49C77.258,-18.218 77.188,-18.805 76.211,-18.807C75.247,-18.809 75.148,-18.252 75.166,-17.511C75.21,-15.673 75.351,-13.828 75.233,-12C75.141,-10.549 74.722,-9.119 74.448,-7.681C74.273,-7.482 74.1,-7.283 73.925,-7.084M188.405,6.327L188.405,7.332C186.652,8.754 184.622,8.395 182.631,8.21C172.721,7.289 162.827,6.116 152.898,5.49C142.962,4.863 132.992,4.641 123.033,4.489C109.972,4.29 96.906,4.302 83.842,4.284C77.41,4.275 70.977,4.335 64.548,4.5C61.214,4.585 57.892,5.076 54.558,5.197C39.165,5.755 23.771,6.288 8.376,6.748C-0.325,7.009 -9.03,7.101 -17.733,7.295C-19.226,7.328 -20.714,7.554 -22.206,7.574C-25.196,7.614 -28.194,7.457 -31.178,7.6C-34.012,7.738 -36.826,8.261 -39.66,8.429C-45.424,8.768 -51.194,9.023 -56.964,9.241C-64.242,9.516 -71.524,9.697 -78.804,9.961C-83.988,10.148 -89.17,10.443 -94.355,10.622C-102.386,10.9 -110.418,11.169 -118.451,11.314C-119.716,11.337 -120.994,10.687 -122.266,10.348L-122.266,9.846C-119.201,8.261 -116.136,6.677 -112.963,5.036C-113.709,4.766 -114.391,4.502 -115.084,4.273C-115.6,4.103 -116.13,3.98 -116.653,3.837C-116.363,3.267 -116.194,2.568 -115.757,2.156C-114.913,1.363 -114.011,0.497 -112.966,0.079C-110.271,-0.998 -107.484,-1.848 -104.735,-2.788C-103.882,-2.943 -103.028,-3.097 -102.176,-3.25L-102.234,-3.725C-103.096,-3.665 -103.957,-3.605 -104.818,-3.544C-106.15,-3.452 -107.485,-3.272 -108.812,-3.321C-109.226,-3.335 -109.898,-3.923 -109.964,-4.328C-110.155,-5.499 -108.518,-7.104 -107.225,-7.247C-106.23,-7.359 -105.224,-7.445 -104.259,-7.686C-102.842,-8.04 -103.302,-9.227 -103.311,-10.178C-103.319,-11.233 -104.027,-11.362 -104.861,-11.293C-105.939,-11.203 -107.038,-11.206 -108.092,-10.992C-109.065,-10.794 -109.587,-10.819 -109.309,-12.018C-109.216,-12.416 -109.199,-12.861 -109.268,-13.265C-109.543,-14.904 -108.652,-15.278 -107.254,-15.311C-104.076,-15.388 -100.9,-15.546 -97.723,-15.652C-95.465,-15.727 -93.204,-15.75 -90.946,-15.838C-90.103,-15.871 -89.222,-15.939 -89.231,-17.162C-89.242,-18.371 -90.056,-18.474 -90.944,-18.441C-94.37,-18.315 -97.798,-18.203 -101.222,-18.019C-103.453,-17.899 -105.679,-17.661 -108.161,-17.455C-107.675,-18.135 -107.127,-18.562 -107.066,-19.049C-106.852,-20.768 -105.707,-20.87 -104.368,-20.905C-101.777,-20.974 -99.188,-21.1 -96.6,-21.232C-92.595,-21.435 -88.592,-21.663 -84.588,-21.88C-83.69,-21.919 -82.789,-21.917 -81.901,-22.028C-81.705,-22.052 -81.559,-22.472 -81.389,-22.709C-81.641,-22.876 -81.914,-23.208 -82.14,-23.178C-82.941,-23.071 -83.728,-22.84 -84.52,-22.655C-85.788,-22.582 -87.058,-22.509 -88.326,-22.435C-88.358,-22.627 -88.392,-22.82 -88.424,-23.012C-87.083,-23.762 -85.634,-24.295 -84.06,-24.337C-81.407,-24.406 -78.748,-24.282 -76.098,-24.394C-71.842,-24.572 -67.585,-24.791 -63.341,-25.146C-55.588,-25.795 -47.857,-26.834 -40.094,-27.205C-27.968,-27.785 -15.822,-27.942 -3.686,-28.284C3.932,-28.499 11.55,-28.688 19.165,-28.971C22.173,-29.082 25.174,-29.397 28.176,-29.653C36.679,-30.377 45.173,-31.216 53.685,-31.821C60.529,-32.309 67.395,-32.512 74.249,-32.876C74.773,-32.904 75.283,-33.21 75.8,-33.387L78.313,-33.387C80.249,-32.313 82.315,-33.114 84.315,-32.97C85.661,-32.959 87.007,-32.948 88.352,-32.939C94.228,-32.941 100.103,-32.943 105.979,-32.945C107.49,-32.951 109.003,-32.959 110.516,-32.967L115.03,-32.97C117.04,-32.956 119.049,-32.943 121.059,-32.929C121.852,-32.715 122.641,-32.326 123.436,-32.316C128.103,-32.255 132.771,-32.283 137.438,-32.28C137.689,-32.28 137.941,-32.27 138.191,-32.25C139.098,-32.181 139.377,-31.737 138.968,-30.91C138.783,-30.535 138.529,-30.192 138.374,-29.806C137.811,-28.407 138.036,-27.907 139.508,-27.358C140.133,-27.123 140.818,-27.042 141.432,-26.785C143.584,-25.886 145.771,-25.044 147.839,-23.974C149.207,-23.266 150.096,-22.021 150.294,-20.383C150.594,-17.905 150.125,-17.366 147.642,-17.426C146.568,-17.451 145.488,-17.537 144.422,-17.461C143.384,-17.387 142.359,-17.001 141.328,-16.996C138.735,-16.983 136.141,-17.196 133.55,-17.146C131.604,-17.108 129.665,-16.801 127.723,-16.614C127.71,-16.407 127.697,-16.2 127.686,-15.994C129.899,-15.196 132.125,-14.455 134.533,-14.291C136.787,-14.137 139.047,-13.992 141.284,-13.696C142.849,-13.487 144.442,-13.196 145.912,-12.647C147.905,-11.9 148.189,-10.763 147.152,-8.902C146.828,-8.319 146.403,-7.769 146.197,-7.147C145.76,-5.823 146.261,-5.071 147.652,-4.863C148.229,-4.777 148.823,-4.816 149.408,-4.776C151.912,-4.604 154.42,-4.464 156.92,-4.233C158.729,-4.065 159.088,-3.304 158.204,-1.754C158.121,-1.61 158.01,-1.482 157.921,-1.34C156.894,0.299 156.879,0.404 158.871,0.823C161.65,1.407 164.452,1.924 167.266,2.306C173.481,3.152 179.706,3.94 185.939,4.642C187.181,4.782 187.861,5.358 188.405,6.327" style="fill:rgb(200,230,80);fill-rule:nonzero;"/>
        </g>
        <g transform="matrix(0.02509,-0.999685,-0.999685,-0.02509,394.119,272.127)">
            <path d="M-8.81,-8.598C-8.96,-2.724 -9.109,3.149 -9.259,9.023C-9.108,9.017 -8.959,9.016 -8.81,9.018L-8.369,-8.57C-8.516,-8.576 -8.664,-8.586 -8.81,-8.598" style="fill:rgb(221,240,149);fill-rule:nonzero;"/>
        </g>
        <g transform="matrix(1,0,0,1,380.83,281.365)">
            <path d="M0,-0.24C-2,-0.385 -4.066,0.417 -6.002,-0.657L0.03,-0.657C0.023,-0.517 0.013,-0.379 0,-0.24" style="fill:rgb(237,245,200);fill-rule:nonzero;"/>
        </g>
        <g transform="matrix(-0.0930319,-0.995663,-0.995663,0.0930319,408.855,278.694)">
            <path d="M-2.253,-2.472C-2.393,-2.463 -2.531,-2.456 -2.671,-2.452C-2.531,-0.955 -2.392,0.544 -2.253,2.042C-2.112,2.043 -1.973,2.04 -1.832,2.032L-2.253,-2.472Z" style="fill:rgb(237,245,200);fill-rule:nonzero;"/>
        </g>
        <g transform="matrix(-0.09758,-0.995228,-0.995228,0.09758,404.315,278.713)">
            <path d="M-2.247,-2.479C-2.388,-2.472 -2.527,-2.468 -2.668,-2.467C-2.528,-0.962 -2.388,0.545 -2.247,2.05C-2.1,2.045 -1.952,2.035 -1.805,2.023L-2.247,-2.479Z" style="fill:rgb(226,241,168);fill-rule:nonzero;"/>
        </g>
        <g transform="matrix(0.102371,0.994746,0.994746,-0.102371,382.457,278.936)">
            <path d="M2.011,-1.842C1.874,-1.815 1.737,-1.791 1.599,-1.77L2.011,2.231C2.159,2.215 2.307,2.195 2.455,2.17C2.307,0.833 2.159,-0.504 2.011,-1.842" style="fill:rgb(226,241,168);fill-rule:nonzero;"/>
        </g>
        <g transform="matrix(1,0,0,1,311.474,293.155)">
            <path d="M0,15.784C3.189,15.734 5.32,13.411 5.236,10.076C5.157,6.946 2.902,4.638 -0.09,4.626C-3.109,4.612 -5.575,7.148 -5.521,10.281C-5.466,13.469 -2.873,16.002 0,15.784M4.992,3.646C5.015,1.975 5.052,0.304 5.051,-1.368C5.05,-2.112 5.144,-2.713 6.089,-2.708C7.081,-2.702 7.05,-2.017 7.063,-1.32C7.177,4.37 7.317,10.058 7.385,15.749C7.392,16.288 7.083,17.133 6.687,17.309C5.953,17.636 5.19,17.393 5.164,16.291C5.162,16.214 4.589,16.008 4.396,16.1C3.425,16.566 2.549,17.312 1.538,17.591C-1.745,18.497 -5.036,16.968 -6.752,13.909C-8.418,10.938 -7.833,7.127 -5.338,4.685C-2.821,2.222 0.504,1.885 3.616,3.774C3.9,3.947 4.185,4.121 4.469,4.294C4.63,4.366 4.79,4.438 4.951,4.511L4.992,3.646Z" style="fill:rgb(13,14,6);fill-rule:nonzero;"/>
        </g>
        <g transform="matrix(1,0,0,1,407.002,301.058)">
            <path d="M0,6.271C1.004,6.265 2.007,6.26 3.01,6.254C3.864,5.63 4.718,5.007 5.572,4.383C6.942,2.866 7.201,1.151 6.486,-0.739C5.901,-2.743 4.667,-4.029 2.532,-4.322C1.688,-4.298 0.845,-4.275 0.001,-4.25C-1.95,-3.865 -3.083,-2.647 -3.555,-0.756C-4.154,0.425 -4.149,1.607 -3.558,2.789C-3.146,4.741 -1.896,5.836 0,6.271M-6.004,12.822C-6,8.236 -5.995,3.651 -5.994,-0.934C-5.993,-2.103 -6.019,-3.271 -6.002,-4.439C-5.993,-5.061 -6.25,-5.826 -5.244,-5.997C-3.932,-6.22 -4.028,-5.225 -3.862,-4.32C-3.542,-4.533 -3.271,-4.69 -3.025,-4.88C-0.291,-7.005 2.471,-7.375 5.08,-5.783C7.971,-4.019 9.428,-1.409 8.958,2.012C8.521,5.186 6.586,7.145 3.647,8.391C1.071,9.484 -0.861,8.223 -2.916,7.129C-2.914,7.008 -2.948,6.898 -3.021,6.8C-3.506,6.135 -3.58,6.125 -3.836,6.692C-3.737,7.063 -3.638,7.434 -3.538,7.805C-3.568,9.053 -3.608,10.301 -3.626,11.549C-3.655,13.646 -3.649,13.646 -5.954,13.31C-5.971,13.147 -5.987,12.984 -6.004,12.822" style="fill:rgb(14,16,6);fill-rule:nonzero;"/>
        </g>
        <g transform="matrix(1,0,0,1,217.507,302.068)">
            <path d="M0,5.256C1.392,1.947 2.575,-0.897 3.794,-3.727C3.938,-4.063 4.274,-4.315 4.521,-4.606C4.766,-4.306 5.084,-4.038 5.243,-3.697C6.546,-0.894 7.819,1.923 9.288,5.144C10.581,2.05 11.742,-0.674 12.852,-3.418C13.187,-4.245 13.538,-5.018 14.573,-4.877C14.881,-4.835 15.421,-4.23 15.361,-4.084C13.488,0.535 11.555,5.129 9.388,10.306C7.668,6.611 6.209,3.474 4.58,-0.029C3.455,2.582 2.476,4.951 1.411,7.281C1.021,8.133 0.431,8.893 -0.067,9.695C-0.505,8.919 -1.007,8.171 -1.368,7.361C-2.869,3.999 -4.362,0.633 -5.766,-2.77C-5.985,-3.302 -7.08,-4.091 -5.891,-4.613C-4.897,-5.05 -4.229,-4.466 -3.814,-3.42C-2.889,-1.087 -1.841,1.197 -0.837,3.498C-0.646,3.939 -0.425,4.366 0,5.256" style="fill:rgb(14,15,6);fill-rule:nonzero;"/>
        </g>
        <g transform="matrix(1,0,0,1,267.084,294.386)">
            <path d="M0,15.096C3.201,15.105 5.453,12.773 5.417,9.487C5.383,6.4 3.078,3.957 0.139,3.892C-2.94,3.823 -5.386,6.278 -5.402,9.455C-5.42,12.735 -3.166,15.087 0,15.096M-3.689,2.965C0.561,1.297 3.383,1.811 5.797,4.692C8.12,7.463 8.222,11.292 6.057,14.183C4.188,16.68 0.576,18.227 -2.846,16.483C-3.688,16.054 -4.234,15.768 -5.154,16.71C-6.04,17.617 -7.274,16.88 -7.294,15.586C-7.382,9.823 -7.422,4.059 -7.479,-1.706C-7.485,-2.389 -7.528,-3.053 -6.52,-3.089C-5.35,-3.131 -5.426,-2.359 -5.41,-1.588C-5.379,-0.087 -5.329,1.414 -5.288,2.916C-5.283,3.315 -5.279,3.714 -5.275,4.113C-4.908,3.908 -4.528,3.723 -4.182,3.488C-3.988,3.357 -3.852,3.142 -3.689,2.965" style="fill:rgb(12,13,6);fill-rule:nonzero;"/>
        </g>
        <g transform="matrix(1,0,0,1,246.562,306.578)">
            <path d="M0,-3.945C-0.781,-6.66 -2.592,-7.978 -5.137,-7.819C-7.502,-7.672 -9.004,-6.301 -9.449,-3.945L0,-3.945ZM-9.974,-2.015C-9.733,0.706 -8.655,2.433 -6.426,3.093C-4.176,3.759 -2.127,3.184 -0.541,1.342C-0.378,1.154 -0.271,0.811 -0.084,0.768C0.474,0.639 1.058,0.622 1.632,0.563C1.609,1.058 1.764,1.663 1.535,2.031C-0.537,5.359 -5.336,6.444 -8.636,4.39C-12.143,2.207 -13.289,-2.607 -11.161,-6.213C-9.458,-9.099 -6.606,-10.389 -3.27,-9.785C-0.647,-9.309 1.902,-6.786 2.473,-4.102C2.845,-2.354 2.649,-2.048 0.839,-2.027C-2.735,-1.986 -6.312,-2.015 -9.974,-2.015" style="fill:rgb(11,12,5);fill-rule:nonzero;"/>
        </g>
        <g transform="matrix(1,0,0,1,345.629,303.148)">
            <path d="M0,-0.391C-0.044,2.778 2.101,5.134 5.113,5.229C8.197,5.326 10.596,2.915 10.609,-0.296C10.621,-3.272 8.213,-5.812 5.328,-5.865C2.484,-5.917 0.041,-3.408 0,-0.391M5.182,-7.977C9.395,-8.034 12.773,-4.654 12.814,-0.341C12.847,2.978 9.314,7.6 6.736,7.615C1.675,7.643 -2.164,4.346 -2.287,-0.134C-2.4,-4.311 1.037,-7.921 5.182,-7.977" style="fill:rgb(10,11,4);fill-rule:nonzero;"/>
        </g>
        <g transform="matrix(1,0,0,1,394.934,309.661)">
            <path d="M0,-14.374C0.812,-15.059 1.63,-14.978 2.452,-14.394C2.466,-14.218 2.479,-14.042 2.492,-13.866C2.463,-11.369 2.469,-8.871 2.396,-6.375C2.321,-3.816 1.409,-1.772 -0.9,-0.308C-2.823,0.911 -4.636,0.278 -6.428,-0.198C-8.341,-0.707 -9.652,-2.229 -9.881,-4.129C-10.259,-7.263 -10.368,-10.443 -10.355,-13.603C-10.349,-15.285 -9.014,-14.545 -8.106,-14.394C-8.084,-14.221 -8.062,-14.047 -8.039,-13.873C-8.041,-11.145 -8.144,-8.412 -8.016,-5.69C-7.907,-3.413 -6.606,-2.146 -4.491,-1.859C-2.396,-1.575 -0.906,-2.578 -0.071,-4.839C0.031,-4.991 0.046,-5.151 -0.027,-5.319L-0.033,-13.88C0.033,-14.041 0.044,-14.205 0,-14.374" style="fill:rgb(20,21,9);fill-rule:nonzero;"/>
        </g>
        <g transform="matrix(1,0,0,1,289.951,306.145)">
            <path d="M0,-4.351C0,-3.016 0.093,-1.673 -0.019,-0.347C-0.297,2.989 -2.436,5.045 -5.661,5.201C-9.244,5.374 -11.712,3.745 -12.17,0.401C-12.575,-2.558 -12.508,-5.586 -12.546,-8.585C-12.55,-8.929 -11.891,-9.543 -11.528,-9.552C-11.188,-9.56 -10.555,-8.948 -10.531,-8.578C-10.371,-5.996 -10.21,-3.402 -10.293,-0.82C-10.386,2.036 -7.267,4.18 -4.152,2.689C-2.6,1.946 -2.078,0.601 -2.068,-1.004C-2.054,-3.175 -2.076,-5.346 -2.076,-7.517C-2.076,-8.016 -2.187,-8.584 -1.987,-8.994C-1.812,-9.35 -1.273,-9.722 -0.894,-9.724C-0.597,-9.725 -0.062,-9.183 -0.041,-8.857C0.051,-7.36 -0.001,-5.854 0,-4.351" style="fill:rgb(11,12,5);fill-rule:nonzero;"/>
        </g>
        <g transform="matrix(1,0,0,1,335.336,304.455)">
            <path d="M0,1.971C1.275,-1.118 2.39,-3.817 3.504,-6.516C3.663,-6.903 3.847,-7.28 3.979,-7.675C4.301,-8.648 4.997,-9.088 5.875,-8.614C6.131,-8.476 6.128,-7.453 5.935,-6.955C4.877,-4.231 3.724,-1.545 2.604,1.156C1.484,3.855 0.372,6.558 -0.759,9.252C-0.982,9.786 -1.158,10.45 -1.575,10.763C-1.971,11.059 -2.652,10.973 -3.208,11.055C-3.233,10.627 -3.263,10.2 -3.278,9.773C-3.281,9.697 -3.234,9.609 -3.188,9.541C-0.854,6.086 -1.396,2.793 -3.472,-0.613C-4.723,-2.667 -5.556,-4.979 -6.524,-7.198C-6.691,-7.58 -6.597,-8.075 -6.622,-8.518C-6.005,-8.433 -5.273,-8.521 -4.803,-8.212C-4.381,-7.934 -4.23,-7.227 -3.986,-6.698C-2.695,-3.901 -1.411,-1.101 0,1.971" style="fill:rgb(14,15,6);fill-rule:nonzero;"/>
        </g>
        <g transform="matrix(1,0,0,1,370.963,299.618)">
            <path d="M0,6.796C0.273,5.358 0.692,3.928 0.785,2.477C0.902,0.649 0.762,-1.196 0.718,-3.034C0.7,-3.775 0.799,-4.332 1.763,-4.33C2.74,-4.328 2.81,-3.741 2.808,-3.014C2.801,-0.424 2.918,2.173 2.779,4.756C2.585,8.352 -0.521,11.128 -4.054,11.063C-5.585,11.034 -8.67,8.602 -9.14,6.755C-9.524,5.241 -9.591,3.635 -9.682,2.063C-9.773,0.48 -9.721,-1.112 -9.733,-2.699C-9.74,-3.45 -9.888,-4.293 -8.71,-4.261C-7.531,-4.228 -7.748,-3.338 -7.737,-2.623C-7.709,-0.702 -7.801,1.228 -7.661,3.14C-7.572,4.347 -7.154,5.53 -6.885,6.724L-6.308,7.377L-6.335,7.352C-6.133,7.512 -5.932,7.672 -5.729,7.833C-4.883,8.045 -4.037,8.258 -3.19,8.471C-2.847,8.402 -2.502,8.335 -2.158,8.268C-1.81,8.128 -1.46,7.988 -1.111,7.849C-0.908,7.69 -0.704,7.529 -0.501,7.37L-0.523,7.393C-0.349,7.193 -0.175,6.995 0,6.796" style="fill:rgb(11,12,5);fill-rule:nonzero;"/>
        </g>
        <g transform="matrix(1,0,0,1,300.886,310.085)">
            <path d="M0,-18.308C0.014,-12.731 0.036,-7.155 0.026,-1.579C0.025,-0.85 -0.064,-0.096 -0.28,0.593C-0.363,0.858 -0.903,1.071 -1.26,1.115C-1.408,1.133 -1.709,0.671 -1.78,0.387C-1.899,-0.088 -1.924,-0.596 -1.929,-1.09C-1.975,-6.589 -2.021,-12.089 -2.04,-17.588C-2.047,-19.441 -2.011,-19.441 -0.08,-18.86C-0.053,-18.676 -0.026,-18.492 0,-18.308" style="fill:rgb(17,18,9);fill-rule:nonzero;"/>
        </g>
        <g transform="matrix(1,0,0,1,293.411,297.572)">
            <path d="M0,12.287C0.009,8.777 0.018,5.266 0.025,1.757C0.027,1.171 -0.144,0.514 0.068,0.019C0.281,-0.478 0.872,-0.813 1.297,-1.219C1.57,-0.809 2.067,-0.407 2.082,0.012C2.217,3.859 2.303,7.709 2.329,11.558C2.342,13.392 2.062,13.506 0.031,12.809C0.021,12.636 0.01,12.462 0,12.287" style="fill:rgb(21,23,9);fill-rule:nonzero;"/>
        </g>
        <g transform="matrix(-0.0363644,-0.999339,-0.999339,0.0363644,294.328,290.248)">
            <path d="M-1.875,-2.12C-2.721,-1.161 -3.326,-0.474 -3.932,0.212C-3.251,0.671 -2.625,1.326 -1.875,1.538C-1.047,1.772 0.055,0.625 -0.235,-0.134C-0.487,-0.795 -1.164,-1.293 -1.875,-2.12" style="fill:rgb(14,16,6);fill-rule:nonzero;"/>
        </g>
        <g transform="matrix(1,0,0,1,211.927,290.887)">
            <path d="M0,1.328C0.023,1.069 0.046,0.81 0.068,0.553C0.86,0.368 1.646,0.138 2.448,0.03C2.674,0 2.947,0.332 3.199,0.499C3.029,0.736 2.883,1.156 2.687,1.181C1.799,1.291 0.897,1.289 0,1.328" style="fill:rgb(237,245,200);fill-rule:nonzero;"/>
        </g>
        <g transform="matrix(0.350836,0.936437,0.936437,-0.350836,192.145,309.842)">
            <path d="M1.243,-0.856C0.997,-0.793 0.751,-0.731 0.506,-0.668C0.752,0.159 0.997,0.988 1.243,1.815L1.708,1.704C1.552,0.851 1.398,-0.002 1.243,-0.856" style="fill:rgb(223,240,156);fill-rule:nonzero;"/>
        </g>
        <g transform="matrix(-0.586013,-0.810302,-0.810302,0.586013,261.682,297.574)">
            <path d="M-0.823,-1.519C-0.872,-1.284 -0.966,-1.047 -0.958,-0.814C-0.946,-0.395 -0.872,0.021 -0.823,0.439C-0.498,0.209 -0.173,-0.022 0.154,-0.252C-0.172,-0.675 -0.498,-1.097 -0.823,-1.519" style="fill:rgb(211,245,82);fill-rule:nonzero;"/>
        </g>
        <g transform="matrix(1,0,0,1,368.805,307.489)">
            <path d="M0,0.396C-0.344,0.463 -0.688,0.531 -1.032,0.599C-0.803,-0.052 -0.475,-0.203 0,0.396" style="fill:rgb(188,217,73);fill-rule:nonzero;"/>
        </g>
        <g transform="matrix(1,0,0,1,316.466,297.665)">
            <path d="M0,-0.864L-0.041,0C-0.202,-0.072 -0.362,-0.144 -0.523,-0.217C-0.349,-0.432 -0.175,-0.648 0,-0.864" style="fill:rgb(211,245,82);fill-rule:nonzero;"/>
        </g>
        <g transform="matrix(0.888876,0.458147,0.458147,-0.888876,403.227,308.726)">
            <path d="M0.273,-0.013C0.014,0.271 -0.244,0.556 -0.502,0.84C-0.243,0.933 0.015,1.025 0.273,1.118C0.382,1.064 0.463,0.981 0.516,0.873C0.436,0.577 0.354,0.283 0.273,-0.013" style="fill:rgb(217,253,83);fill-rule:nonzero;"/>
        </g>
        <g transform="matrix(1,0,0,1,394.934,295.781)">
            <path d="M0,-0.494C0.044,-0.325 0.033,-0.161 -0.033,0C-0.081,-0.117 -0.146,-0.232 -0.168,-0.354C-0.175,-0.39 -0.06,-0.447 0,-0.494" style="fill:rgb(220,253,84);fill-rule:nonzero;"/>
        </g>
        <g transform="matrix(1,0,0,1,386.895,295.267)">
            <path d="M0,0.521C-0.022,0.347 -0.045,0.173 -0.067,0C0.011,0.117 0.102,0.228 0.157,0.355C0.17,0.382 0.056,0.464 0,0.521" style="fill:rgb(217,253,83);fill-rule:nonzero;"/>
        </g>
        <g transform="matrix(1,0,0,1,397.426,295.268)">
            <path d="M0,0.527C-0.014,0.351 -0.026,0.175 -0.04,0C0.032,0.12 0.118,0.236 0.166,0.365C0.178,0.394 0.059,0.471 0,0.527" style="fill:rgb(220,253,84);fill-rule:nonzero;"/>
        </g>
        <g transform="matrix(1,0,0,1,300.886,291.225)">
            <path d="M0,0.552C-0.026,0.368 -0.053,0.184 -0.08,0C-0.053,0.184 -0.026,0.368 0,0.552" style="fill:rgb(217,253,83);fill-rule:nonzero;"/>
        </g>
        <g transform="matrix(1,0,0,1,394.907,304.821)">
            <path d="M0,-0.48C0.073,-0.312 0.059,-0.152 -0.044,0C-0.087,-0.116 -0.145,-0.23 -0.162,-0.35C-0.167,-0.384 -0.058,-0.436 0,-0.48" style="fill:rgb(220,253,84);fill-rule:nonzero;"/>
        </g>
        <g transform="matrix(1,0,0,1,364.656,306.342)">
            <path d="M0,0.653L-0.577,0L0,0.653Z" style="fill:rgb(188,217,73);fill-rule:nonzero;"/>
        </g>
        <g transform="matrix(1,0,0,1,365.234,306.97)">
            <path d="M0,0.481C-0.202,0.32 -0.403,0.16 -0.605,0C-0.403,0.16 -0.202,0.32 0,0.481" style="fill:rgb(188,217,73);fill-rule:nonzero;"/>
        </g>
        <g transform="matrix(1,0,0,1,370.462,307.467)">
            <path d="M0,-0.479C-0.203,-0.32 -0.407,-0.16 -0.61,0C-0.407,-0.16 -0.203,-0.32 0,-0.479" style="fill:rgb(188,217,73);fill-rule:nonzero;"/>
        </g>
        <g transform="matrix(1,0,0,1,293.411,310.381)">
            <path d="M0,-0.522C0.01,-0.347 0.021,-0.173 0.031,0C-0.038,-0.119 -0.121,-0.234 -0.167,-0.362C-0.177,-0.392 -0.06,-0.467 0,-0.522" style="fill:rgb(220,253,84);fill-rule:nonzero;"/>
        </g>
        <g transform="matrix(1,0,0,1,400.998,314.368)">
            <path d="M0,-0.488C0.017,-0.326 0.033,-0.163 0.05,0C-0.024,-0.11 -0.109,-0.215 -0.163,-0.334C-0.173,-0.356 -0.058,-0.435 0,-0.488" style="fill:rgb(217,253,83);fill-rule:nonzero;"/>
        </g>
        <g transform="matrix(1,0,0,1,370.963,307.011)">
            <path d="M0,-0.597C-0.175,-0.398 -0.349,-0.2 -0.523,0C-0.349,-0.2 -0.175,-0.398 0,-0.597" style="fill:rgb(188,217,73);fill-rule:nonzero;"/>
        </g>
        <g transform="matrix(0.999967,-0.0080657,-0.0080657,-0.999967,311.518,308.938)">
            <path d="M-0.044,-0.001C-2.919,-0.196 -5.491,2.358 -5.521,5.547C-5.549,8.68 -3.063,11.196 -0.044,11.158C2.948,11.121 5.184,8.795 5.238,5.665C5.295,2.329 3.145,0.023 -0.044,-0.001" style="fill:rgb(198,229,78);fill-rule:nonzero;"/>
        </g>
        <g transform="matrix(1,0,0,1,403.448,303.763)">
            <path d="M0,-3.462C0.472,-5.353 1.604,-6.57 3.556,-6.956C4.419,-6.283 5.265,-6.251 6.087,-7.027C8.222,-6.734 9.456,-5.448 10.041,-3.444C9.736,-1.737 9.432,-0.029 9.127,1.678C8.272,2.302 7.419,2.925 6.564,3.549C5.558,2.87 4.555,2.856 3.555,3.565C1.658,3.131 0.408,2.035 -0.003,0.083C0.821,-1.098 0.818,-2.279 0,-3.462" style="fill:rgb(197,228,77);fill-rule:nonzero;"/>
        </g>
        <g transform="matrix(1,0,0,1,412.575,300.319)">
            <path d="M0,5.122C0.305,3.415 0.609,1.707 0.914,0C1.629,1.89 1.37,3.604 0,5.122" style="fill:rgb(188,217,73);fill-rule:nonzero;"/>
        </g>
        <g transform="matrix(1,0,0,1,403.448,303.846)">
            <path d="M0,-3.545C0.818,-2.362 0.821,-1.181 -0.003,0C-0.595,-1.182 -0.6,-2.363 0,-3.545" style="fill:rgb(188,217,73);fill-rule:nonzero;"/>
        </g>
        <g transform="matrix(1,0,0,1,407.002,306.62)">
            <path d="M0,0.709C1,0 2.003,0.014 3.01,0.692C2.007,0.698 1.004,0.703 0,0.709" style="fill:rgb(188,217,73);fill-rule:nonzero;"/>
        </g>
        <g transform="matrix(1,0,0,1,409.535,297.512)">
            <path d="M0,-0.776C-0.822,0 -1.668,-0.032 -2.531,-0.705C-1.687,-0.729 -0.844,-0.753 0,-0.776" style="fill:rgb(188,217,73);fill-rule:nonzero;"/>
        </g>
        <g transform="matrix(1,0,0,1,403.982,307.183)">
            <path d="M0,0.675C-0.271,0.639 -0.544,0.603 -0.815,0.567C-0.56,0 -0.485,0.01 0,0.675" style="fill:rgb(81,90,38);fill-rule:nonzero;"/>
        </g>
        <g transform="matrix(0.999923,0.0124053,0.0124053,-0.999923,267.015,309.481)">
            <path d="M0.07,0C-3.096,-0.03 -5.379,2.294 -5.402,5.574C-5.425,8.751 -3.01,11.236 0.07,11.205C3.009,11.177 5.345,8.762 5.417,5.676C5.494,2.391 3.271,0.031 0.07,0" style="fill:rgb(199,229,78);fill-rule:nonzero;"/>
        </g>
        <g transform="matrix(1,0,0,1,246.562,298.6)">
            <path d="M0,4.033L-9.449,4.033C-9.004,1.677 -7.502,0.306 -5.137,0.159C-2.592,0 -0.781,1.318 0,4.033" style="fill:rgb(188,217,73);fill-rule:nonzero;"/>
        </g>
        <g transform="matrix(-0.0089543,0.99996,0.99996,0.0089543,351.061,297.565)">
            <path d="M5.24,-5.385C2.223,-5.371 -0.308,-2.95 -0.281,-0.106C-0.254,2.779 2.264,5.21 5.24,5.225C8.451,5.241 10.884,2.863 10.814,-0.222C10.746,-3.234 8.41,-5.4 5.24,-5.385" style="fill:rgb(196,227,77);fill-rule:nonzero;"/>
        </g>
        <g transform="matrix(0,-1,-1,0,188.925,42.6157)">
            <path d="M-1.966,2.299L2.298,2.299C2.299,2.188 2.308,2.076 2.326,1.966L-1.993,1.966C-1.987,2.077 -1.978,2.189 -1.966,2.299" style="fill:rgb(225,242,160);fill-rule:nonzero;"/>
        </g>
        <g transform="matrix(0.985155,-0.171668,-0.171668,-0.985155,187.12,40.247)">
            <path d="M-0.166,-0.014C-0.277,-0.013 -0.389,-0.003 -0.499,0.015L-0.166,1.925C-0.056,1.907 0.054,1.894 0.165,1.887C0.055,1.252 -0.055,0.619 -0.166,-0.014" style="fill:rgb(239,247,207);fill-rule:nonzero;"/>
        </g>
        <g transform="matrix(-0.980413,0.196955,0.196955,0.980413,187.111,46.1095)">
            <path d="M0.175,-1.593C0.069,-1.56 -0.039,-1.529 -0.147,-1.501C-0.039,-0.998 0.067,-0.493 0.175,0.011C0.279,-0.007 0.381,-0.036 0.48,-0.073L0.175,-1.593Z" style="fill:rgb(239,247,207);fill-rule:nonzero;"/>
        </g>
        <g transform="matrix(1,0,0,1,247.048,79.3167)">
            <path d="M0,-69.739C-15.153,-79.641 -33.901,-77.089 -45.957,-64.836C-59.134,-51.444 -61.522,-29.054 -48.879,-12.433C-49.062,-11.249 -49.948,-9.993 -48.709,-8.851C-47.673,-7.895 -46.703,-8.609 -45.842,-9.085C-25.062,11.103 7.198,1.646 15.404,-25.535C18.922,-37.185 17.149,-48.273 10.869,-58.639C11.233,-61.245 11.031,-61.521 8.312,-62.1C6.88,-63.892 5.219,-65.515 3.485,-67.098C3.486,-68.232 3.956,-69.483 2.68,-70.262C1.658,-70.886 0.841,-70.359 0,-69.739M-60.105,-33.162C-60.1,-33.677 -60.095,-34.193 -60.089,-34.708L-60.089,-39.027C-60.089,-39.67 -60.089,-40.313 -60.09,-40.957C-58.414,-59.897 -45.057,-75.097 -26.374,-78.308C-11.634,-80.842 0.729,-75.67 10.34,-64.353C17.389,-56.053 20.558,-46.186 20.154,-35.335C19.411,-15.346 5.585,1.651 -14.056,4.652C-28.417,6.845 -40.487,1.97 -50.028,-8.927C-56.079,-15.838 -59.261,-24.038 -60.105,-33.162" style="fill:rgb(200,231,79);fill-rule:nonzero;"/>
        </g>
        <g transform="matrix(1,0,0,1,252.334,72.7513)">
            <path d="M0,-55.406C-0.807,-56.515 -1.594,-57.269 -2.657,-58.077C-2.895,-57.068 -3.323,-56.313 -3.188,-55.406L0,-55.406ZM-5.925,-60.652C-18.835,-70.192 -39.204,-69.488 -51.823,-54.183C-64.463,-38.854 -61.111,-18.304 -53.256,-9.166C-53.136,-9.511 -53.018,-9.803 -52.932,-10.105C-50.083,-20.101 -47.239,-30.098 -44.392,-40.094C-43.401,-43.571 -42.392,-47.043 -41.415,-50.525C-41.131,-51.541 -40.669,-52.385 -39.498,-52.365C-38.224,-52.344 -37.767,-51.422 -37.582,-50.31C-37.518,-49.928 -37.454,-49.546 -37.386,-49.165C-35.688,-39.574 -33.987,-29.983 -32.21,-19.952C-31.899,-20.874 -31.7,-21.396 -31.547,-21.931C-30.486,-25.657 -29.437,-29.386 -28.38,-33.114C-28.071,-34.203 -27.707,-35.326 -26.301,-35.272C-24.773,-35.213 -24.535,-33.991 -24.372,-32.798C-23.925,-29.536 -23.497,-26.271 -23.05,-23.009C-22.417,-18.392 -21.772,-13.776 -21.133,-9.16C-21.034,-9.162 -20.936,-9.163 -20.836,-9.165C-16.758,-23.273 -12.68,-37.38 -8.534,-51.72C-11.12,-51.72 -13.43,-51.748 -15.738,-51.709C-17.021,-51.687 -18.219,-51.889 -18.265,-53.413C-18.314,-55.029 -17.139,-55.351 -15.739,-55.328C-13.036,-55.283 -10.333,-55.315 -7.523,-55.315C-6.978,-57.136 -6.464,-58.853 -5.925,-60.652M-50.439,-5.274C-38.741,7.768 -17.983,10.469 -3.158,-2.346C12.965,-16.283 12.391,-39.141 2.909,-51.609L-4.668,-51.609C-4.893,-50.853 -5.098,-50.18 -5.293,-49.505C-10.024,-33.128 -14.751,-16.75 -19.489,-0.376C-19.856,0.892 -19.977,2.568 -21.846,2.398C-23.677,2.231 -23.568,0.552 -23.751,-0.748C-24.355,-5.032 -24.901,-9.324 -25.483,-13.611C-25.938,-16.965 -26.413,-20.315 -26.879,-23.667C-27.273,-23.314 -27.403,-22.962 -27.506,-22.602C-28.585,-18.814 -29.666,-15.027 -30.73,-11.235C-31,-10.275 -31.507,-9.545 -32.565,-9.543C-33.725,-9.541 -34.268,-10.317 -34.463,-11.381C-34.672,-12.524 -34.881,-13.667 -35.083,-14.812C-36.653,-23.694 -38.222,-32.576 -39.791,-41.458C-39.898,-41.473 -40.007,-41.489 -40.114,-41.504C-43.555,-29.431 -46.996,-17.358 -50.439,-5.274M-5.286,-63.174C-4.445,-63.793 -3.628,-64.321 -2.606,-63.697C-1.33,-62.918 -1.8,-61.667 -1.801,-60.533C-0.067,-58.95 1.594,-57.327 3.025,-55.535C5.745,-54.955 5.947,-54.68 5.583,-52.074C11.863,-41.708 13.636,-30.62 10.118,-18.969C1.912,8.211 -30.349,17.669 -51.128,-2.519C-51.989,-2.044 -52.959,-1.33 -53.995,-2.285C-55.234,-3.428 -54.348,-4.683 -54.165,-5.867C-66.809,-22.489 -64.42,-44.879 -51.243,-58.271C-39.188,-70.524 -20.439,-73.075 -5.286,-63.174" style="fill-rule:nonzero;"/>
        </g>
        <g transform="matrix(1,0,0,1,201.895,36.8857)">
            <path d="M0,30.592C3.443,18.508 6.885,6.435 10.325,-5.638C10.433,-5.623 10.541,-5.608 10.648,-5.593C12.218,3.29 13.786,12.172 15.356,21.054C15.559,22.198 15.768,23.342 15.977,24.485C16.172,25.549 16.715,26.324 17.874,26.322C18.933,26.321 19.439,25.591 19.709,24.631C20.773,20.839 21.854,17.051 22.934,13.263C23.036,12.904 23.166,12.552 23.561,12.198C24.026,15.55 24.501,18.901 24.956,22.255C25.538,26.542 26.084,30.834 26.688,35.117C26.871,36.418 26.763,38.097 28.594,38.263C30.463,38.433 30.583,36.758 30.95,35.489C35.688,19.115 40.415,2.738 45.146,-13.639C45.342,-14.315 45.547,-14.988 45.771,-15.743L53.349,-15.743C62.83,-3.275 63.404,19.582 47.281,33.519C32.456,46.335 11.698,43.634 0,30.592" style="fill:rgb(200,231,79);fill-rule:nonzero;"/>
        </g>
        <g transform="matrix(1,0,0,1,246.41,54.0512)">
            <path d="M0,-41.952C-0.539,-40.153 -1.053,-38.436 -1.599,-36.615C-4.408,-36.615 -7.111,-36.583 -9.814,-36.628C-11.214,-36.651 -12.39,-36.329 -12.34,-34.713C-12.294,-33.189 -11.097,-32.987 -9.813,-33.009C-7.505,-33.048 -5.195,-33.02 -2.609,-33.02C-6.755,-18.68 -10.833,-4.573 -14.911,9.535C-15.011,9.537 -15.109,9.538 -15.208,9.54C-15.848,4.924 -16.492,0.308 -17.125,-4.308C-17.572,-7.571 -18,-10.836 -18.447,-14.098C-18.61,-15.291 -18.849,-16.513 -20.376,-16.572C-21.782,-16.626 -22.146,-15.503 -22.455,-14.413C-23.512,-10.686 -24.562,-6.957 -25.622,-3.231C-25.775,-2.696 -25.975,-2.174 -26.285,-1.252C-28.062,-11.283 -29.763,-20.874 -31.461,-30.465C-31.529,-30.846 -31.593,-31.228 -31.657,-31.61C-31.842,-32.722 -32.299,-33.644 -33.573,-33.665C-34.744,-33.684 -35.206,-32.841 -35.49,-31.825C-36.467,-28.343 -37.477,-24.871 -38.467,-21.394C-41.314,-11.398 -44.158,-1.401 -47.007,8.595C-47.093,8.897 -47.211,9.189 -47.331,9.534C-55.187,0.396 -58.538,-20.154 -45.898,-35.483C-33.279,-50.787 -12.91,-51.492 0,-41.952" style="fill:rgb(200,231,79);fill-rule:nonzero;"/>
        </g>
        <g transform="matrix(1,0,0,1,252.334,14.6743)">
            <path d="M0,2.671L-3.188,2.671C-3.323,1.764 -2.895,1.009 -2.657,0C-1.594,0.808 -0.807,1.562 0,2.671" style="fill:rgb(200,231,79);fill-rule:nonzero;"/>
        </g>
    </g>
</svg>
